{"title":"Grabbers 2012 BRRip XviD-aTLas","uid":7891896,"size":733178510,"categoryP":"video","categoryS":"movies","magnet":"?xt=urn:btih:84804640e61e4bd9d6a9a784f8a452b7a7db21a9&amp;dn=Grabbers+2012+BRRip+XviD-aTLas&amp;tr=udp%3A%2F%2Ftracker.openbittorrent.com%3A80&amp;tr=udp%3A%2F%2Fopen.demonii.com%3A1337&amp;tr=udp%3A%2F%2Ftracker.coppersurfer.tk%3A6969&amp;tr=udp%3A%2F%2Fexodus.desync.com%3A6969","seeders":0,"leechers":2,"uploader":"Mediamonster","files":-1,"time":1354743662,"description":"Grabbers 2012 BRRip XviD-aTLas\n &lt;a href=&quot;\nhttp://www.imdb.com/title/tt1525366/&quot; rel=&quot;nofollow&quot; target=&quot;_NEW&quot;&gt;\nhttp://www.imdb.com/title/tt1525366/&lt;/a&gt;\n\nPlot:\nWhen an island off the coast of Ireland is invaded by bloodsucking aliens, the heroes discover that getting drunk is the only way to survive.\n\nDetails:\nFormat                                   : AVI\nFormat/Info                              : Audio Video Interleave\nFormat profile                           : OpenDML\nFormat settings                          : rec\nFile size                                : 696 MiB\nDuration                                 : 1h 33mn\nOverall bit rate                         : 1 035 Kbps\nWriting application                      : AVI-Mux GUI 1.17.8.3, Feb 16 201019:42:50\n\nVideo\nID                                       : 0\nFormat                                   : MPEG-4 Visual\nFormat profile                           : Advanced Simple@L5\nFormat settings, BVOP                    : 2\nFormat settings, QPel                    : No\nFormat settings, GMC                     : No warppoints\nFormat settings, Matrix                  : Default (H.263)\nCodec ID                                 : XVID\nCodec ID/Hint                            : XviD\nDuration                                 : 1h 33mn\nBit rate                                 : 904 Kbps\nWidth                                    : 656 pixels\nHeight                                   : 272 pixels\nDisplay aspect ratio                     : 2.40:1\nFrame rate                               : 24.000 fps\nColor space                              : YUV\nChroma subsampling                       : 4:2:0\nBit depth                                : 8 bits\nScan type                                : Progressive\nCompression mode                         : Lossy\nBits/(Pixel*Frame)                       : 0.211\nStream size                              : 607 MiB (87%)\nWriting library                          : XviD 1.2.1 (UTC 2008-12-04)\n\nAudio\nID                                       : 1\nFormat                                   : MPEG Audio\nFormat version                           : Version 1\nFormat profile                           : Layer 3\nMode                                     : Joint stereo\nMode extension                           : MS Stereo\nCodec ID                                 : 55\nCodec ID/Hint                            : MP3\nDuration                                 : 1h 33mn\nBit rate mode                            : Constant\nBit rate                                 : 128 Kbps\nChannel(s)                               : 2 channels\nSampling rate                            : 48.0 KHz\nCompression mode                         : Lossy\nStream size                              : 86.0 MiB (12%)\nAlignment                                : Aligned on interleaves\nInterleave, duration                     : 794 ms (19.06 video frames)\nInterleave, preload duration             : 216 ms\nTitle                                    : aTLas\nWriting library                          : LAME3.99r\nEncoding settings                        : -m j -V 4 -q 2 -lowpass 17 -b 128","torrent":{"xt":"urn:btih:84804640e61e4bd9d6a9a784f8a452b7a7db21a9","amp;dn":"Grabbers+2012+BRRip+XviD-aTLas","amp;tr":["udp%3A%2F%2Ftracker.openbittorrent.com%3A80","udp%3A%2F%2Fopen.demonii.com%3A1337","udp%3A%2F%2Ftracker.coppersurfer.tk%3A6969","udp%3A%2F%2Fexodus.desync.com%3A6969"],"infoHash":"84804640e61e4bd9d6a9a784f8a452b7a7db21a9","infoHashBuffer":{"type":"Buffer","data":[132,128,70,64,230,30,75,217,214,169,167,132,248,164,82,183,167,219,33,169]},"announce":[],"urlList":[]}}